PathFileType	4	(X/Y/Z)	./resultDataOpenSim/trcMotMarkerGrf/sub09/qtm-04-04.trc
DataRate	CameraRate	NumFrames	NumMarkers	Units	OrigDataRate	OrigDataStartFrame	OrigNumFrames
250.000000	250.000000	7	24	m	250.000000	311	496
Frame#	Time	L.Toe.Tip			R.Toe.Tip			L.Ankle.Lat			R.Ankle.Lat			L.Ankle.Med			R.Ankle.Med			L.Heel			R.Heel			L.Knee.Lat			R.Knee.Lat			L.Knee.Med			R.Knee.Med			L.Thigh.Upper			R.Thigh.Upper			L.ASIS			R.ASIS			V.Sacral			L.Acromium			R.Acromium			C7			L.Elbow			R.Elbow			L.Wrist.Lat			R.Wrist.Lat
		X1	Y1	Z1	X2	Y2	Z2	X3	Y3	Z3	X4	Y4	Z4	X5	Y5	Z5	X6	Y6	Z6	X7	Y7	Z7	X8	Y8	Z8	X9	Y9	Z9	X10	Y10	Z10	X11	Y11	Z11	X12	Y12	Z12	X13	Y13	Z13	X14	Y14	Z14	X15	Y15	Z15	X16	Y16	Z16	X17	Y17	Z17	X18	Y18	Z18	X19	Y19	Z19	X20	Y20	Z20	X21	Y21	Z21	X22	Y22	Z22	X23	Y23	Z23	X24	Y24	Z24

311	1.24	0.15048968	-0.0259006	0.013022455	1.0224899	0.042663483	0.10572824	0.089215522	0.11213894	-0.058596089	0.87550724	0.053087164	0.14226405	0.1211531	0.11131133	0.033828548	0.88046158	0.091819474	0.050403358	0.024043526	0.1405206	-0.013129578	0.80615951	0.031294776	0.094367823	0.38918872	0.41255547	-0.090446861	0.85490559	0.50657947	0.19647369	0.39835441	0.39484676	0.035799606	0.83717077	0.49318478	0.072496497	0.53486977	0.79408867	-0.10273778	0.6034293	0.82505051	0.26458353	0.64638245	0.86662687	-0.060542805	0.66819021	0.90123187	0.17635321	0.49016384	0.94298745	0.070243951	0.65439147	1.3396211	-0.098831438	0.62115629	1.343037	0.23141046	0.56714998	1.3898987	0.061114334	0.56232785	0.96976508	-0.16462596	0.46091633	1.0225637	0.30152097	0.81437157	0.86944057	-0.1277472	0.5496513	0.76676601	0.34847908
312	1.244	0.15264058	-0.024199984	0.012509845	1.0229197	0.042169841	0.10527541	0.095473636	0.11641935	-0.058773139	0.87593452	0.05305266	0.14193466	0.12774775	0.1147126	0.033490805	0.88078752	0.091527029	0.05005042	0.031459547	0.14658786	-0.013116076	0.80638186	0.031379798	0.094324255	0.39997521	0.41167866	-0.09132992	0.86058589	0.50608775	0.196553	0.40955251	0.39326793	0.034454472	0.84231282	0.49271453	0.072516018	0.54227966	0.79424395	-0.10167594	0.61028984	0.82627965	0.26533782	0.65336333	0.86734646	-0.059538259	0.67490677	0.90248079	0.1770314	0.49744178	0.94395125	0.070608963	0.66130878	1.3406182	-0.098356486	0.62778575	1.3440372	0.23178716	0.57375494	1.3908292	0.06147594	0.56806287	0.97132031	-0.16423561	0.46821135	1.0232751	0.30188955	0.81890727	0.86790136	-0.12774673	0.55787456	0.76759574	0.34841451
313	1.248	0.15499336	-0.022313666	0.012003031	1.023316	0.041753708	0.10494206	0.10197947	0.12079488	-0.058773591	0.87630453	0.052971415	0.14165131	0.13461089	0.11823927	0.033324253	0.88110295	0.091310132	0.049763344	0.039201705	0.15279818	-0.012993004	0.80658059	0.03145246	0.094270258	0.4110751	0.41080916	-0.092106734	0.86575191	0.50580739	0.1966295	0.42105973	0.39180132	0.033088657	0.84738313	0.49231385	0.072461443	0.54960033	0.79446945	-0.10054735	0.61702187	0.82742417	0.26613367	0.66022435	0.86814818	-0.058557439	0.68147762	0.90367613	0.17777963	0.50449864	0.94496781	0.071113313	0.66816291	1.3416592	-0.097899907	0.63438909	1.3450895	0.23214758	0.58032767	1.3918205	0.061816067	0.57378532	0.9729117	-0.16385781	0.47534892	1.0240216	0.30219614	0.82335429	0.8663582	-0.12779983	0.56612534	0.76849053	0.34833092
314	1.252	0.15754368	-0.020210135	0.011500775	1.0236452	0.041431838	0.10470092	0.10873529	0.12524086	-0.05860914	0.87654232	0.05288772	0.1414536	0.14176116	0.12188261	0.033312577	0.88142288	0.091155687	0.049534377	0.047264801	0.15913195	-0.012749324	0.80673927	0.031520901	0.094214196	0.42249203	0.4099277	-0.092758169	0.87021434	0.50571867	0.19665873	0.43289624	0.39037573	0.031912326	0.85231751	0.49200628	0.072361935	0.5568168	0.79481362	-0.099521491	0.62362054	0.82850219	0.26695018	0.66697268	0.86903217	-0.057600127	0.68792668	0.90483136	0.17860566	0.51143627	0.94604617	0.071698267	0.67494518	1.3427417	-0.09746594	0.64097191	1.3461972	0.23249251	0.58685865	1.3928758	0.062130483	0.57949735	0.97453046	-0.16348353	0.48221206	1.0247781	0.30237273	0.82771396	0.86480877	-0.12790449	0.57440262	0.76944905	0.34822895
315	1.256	0.16027212	-0.017880133	0.010992843	1.0238825	0.041199949	0.10452273	0.11581518	0.12978041	-0.058327663	0.87664435	0.052815924	0.14134222	0.14920489	0.12562494	0.033436524	0.88171578	0.091050271	0.049363553	0.05565307	0.16557372	-0.012376706	0.80683835	0.031581837	0.094182207	0.43418781	0.40899869	-0.093298707	0.87426358	0.50572585	0.1966016	0.4449816	0.38900539	0.031007455	0.85704897	0.49179996	0.072250478	0.56392656	0.79528926	-0.098691381	0.63008884	0.82952631	0.26776861	0.67361705	0.8699877	-0.05666414	0.69427627	0.90596176	0.17950729	0.51832631	0.94720297	0.072290576	0.68165175	1.3438614	-0.097057313	0.6475413	1.3473586	0.2328234	0.5933444	1.3940004	0.062423396	0.58520319	0.9761734	-0.1631069	0.48883757	1.0255443	0.30244542	0.83199289	0.86325186	-0.12805477	0.58270754	0.77046295	0.34810927
316	1.26	0.16314637	-0.015318684	0.010470001	1.0240272	0.041032412	0.10437258	0.12332634	0.13445485	-0.058001004	0.87672855	0.052716975	0.14126845	0.15693326	0.12944957	0.033681656	0.88193657	0.090984202	0.049253363	0.064372256	0.17211863	-0.011880112	0.8068723	0.031625753	0.094189776	0.44610918	0.40800818	-0.09376003	0.87833442	0.50573372	0.19648755	0.45732382	0.38775475	0.030286161	0.86152046	0.49169972	0.072147404	0.57093968	0.79585359	-0.097973386	0.63644189	0.8305141	0.26858038	0.68015979	0.87100306	-0.055752313	0.70053937	0.90708233	0.18046784	0.52511592	0.94844251	0.072880002	0.68827647	1.3450146	-0.096676715	0.6540989	1.3485698	0.23314115	0.59978709	1.3951941	0.06270511	0.59090454	0.97783852	-0.16272802	0.4954213	1.0263423	0.30252926	0.83620377	0.86169314	-0.12824627	0.59103643	0.77152534	0.34796841
317	1.264	0.16614066	-0.012509499	0.0099226963	1.0240966	0.04090232	0.10423128	0.13133437	0.13928482	-0.057690618	0.87685748	0.052565317	0.14121363	0.16492922	0.13335137	0.034039079	0.88206204	0.090954844	0.04920112	0.073428651	0.17877207	-0.011276498	0.80685074	0.03164752	0.094232047	0.45821542	0.40698613	-0.094162456	0.8825574	0.50571122	0.19637865	0.46997557	0.38667428	0.029640382	0.86569348	0.49170619	0.072061798	0.57787031	0.79644942	-0.097241406	0.64269783	0.83149394	0.26938242	0.68659846	0.87207317	-0.054870856	0.70672229	0.90821194	0.18146357	0.53171744	0.94975617	0.0734905	0.69480955	1.3462012	-0.09632686	0.66063773	1.3498293	0.23344556	0.60618775	1.3964462	0.062984119	0.59659716	0.97951836	-0.16234655	0.50213544	1.0271936	0.30272183	0.84035951	0.86014405	-0.1284828	0.59938324	0.7726402	0.34780235
